<svg xmlns="http://www.w3.org/2000/svg" viewBox="0 0 400 120">
  <defs>
    <linearGradient id="flameGradient" x1="0%" y1="100%" x2="0%" y2="0%">
      <stop offset="0%" style="stop-color:#1e40af"/>
      <stop offset="50%" style="stop-color:#3b82f6"/>
      <stop offset="100%" style="stop-color:#60a5fa"/>
    </linearGradient>
  </defs>
  <!-- Flame Symbol -->
  <g transform="translate(10, 10)">
    <path d="M25 95 C15 75 5 55 15 35 C20 25 25 15 35 5 C40 15 45 30 45 45 C55 35 60 25 55 15 C65 25 75 45 70 65 C65 85 50 95 35 95 C30 95 27 95 25 95 Z" fill="url(#flameGradient)"/>
    <path d="M30 95 C25 80 25 65 30 50 C35 60 40 70 40 85 C40 90 35 95 30 95 Z" fill="#1e3a8a"/>
    <!-- Cross -->
    <rect x="32" y="25" width="6" height="45" fill="white"/>
    <rect x="22" y="35" width="26" height="6" fill="white"/>
    <!-- Open Bible -->
    <path d="M15 70 L35 60 L55 70 L55 85 L35 75 L15 85 Z" fill="#1e3a8a"/>
    <line x1="35" y1="60" x2="35" y2="75" stroke="white" stroke-width="1"/>
  </g>
  <!-- Text -->
  <g transform="translate(95, 30)">
    <text x="0" y="25" font-family="Arial, sans-serif" font-size="28" font-weight="bold" fill="#1e40af">SEVENTH-DAY</text>
    <text x="0" y="55" font-family="Arial, sans-serif" font-size="28" font-weight="bold" fill="#1e40af">ADVENTIST CHURCH</text>
    <!-- Church name rendered dynamically from organization data -->
  </g>
</svg>